<svg viewBox="0 0 150 150" fill="none" xmlns="http://www.w3.org/2000/svg">
<path d="M123.8 16.28H117.58V12.08C117.58 6.79 113.7 3.5 108.95 3.5C103.94 3.5 100.34 7.79 100.34 12.44V16.28H49.49V11.94C49.49 6.71 45.68 3.5 41.03 3.5C36.23 3.5 32.14 7.29 32.14 12.42V16.28H25.93C16.65 16.28 9.34 24.78 9.34 33.86V128.21C9.34 137.8 16.76 146.23 27.63 146.23H122.23C132.43 146.23 140.01 137.98 140.01 128.51V33.86C140.01 24.27 132.3 16.28 123.8 16.28ZM105.68 12.17C105.68 9.78 107.35 8.41 109.16 8.41C111.38 8.41 112.61 10.09 112.61 12.05V26.09C112.61 28.49 111.08 29.64 109.2 29.64C107.12 29.64 105.68 28.16 105.68 26.22V12.17ZM37.11 12.03C37.11 9.63 38.78 8.36 40.59 8.36C42.81 8.36 43.99 10.04 43.99 12V26.09C43.99 28.49 42.51 29.54 40.64 29.54C38.56 29.54 37.11 28.05 37.11 26.11V12.03ZM25.93 21.61H31.94V26.17C31.94 31.4 35.75 34.61 40.4 34.61C45.96 34.61 49.34 30.51 49.34 25.74V21.61H100.49V26.03C100.49 31.55 104.38 34.61 109.13 34.61C114.14 34.61 117.58 30.39 117.58 26.06V21.61H123.79C130.84 21.61 134.9 28.17 134.9 33.66V45.06H14.5V33.66C14.5 26.82 19.64 21.61 25.89 21.61H25.93ZM122.23 140.71H27.63C19.96 140.71 14.64 135.5 14.64 128.14V50.72H134.74V128.54C134.74 135.9 129.2 140.71 122.22 140.71H122.23Z" fill="url(#paint0_linear_134_52)"/>
<path d="M97.3945 67H35.252C33.0605 67 32 68.7857 32 70.5714C32 72.6429 33.5553 74 35.4641 74H97.4652C99.6568 74 101 72.4286 101 70.5C101 68.4286 99.4447 67 97.3945 67Z" fill="url(#paint1_linear_134_52)"/>
<path d="M75.5678 87H35.2221C33.0507 87 32 88.7843 32 90.4314C32 92.4216 33.541 94 35.4322 94H75.7079C77.8793 94 79 92.2843 79 90.5C79 88.6471 77.6692 87 75.5678 87Z" fill="url(#paint2_linear_134_52)"/>
<defs>
<linearGradient id="paint0_linear_134_52" x1="18.0558" y1="10.7821" x2="76.8598" y2="157.739" gradientUnits="userSpaceOnUse">
<stop stop-color="#367900"/>
</linearGradient>
<linearGradient id="paint1_linear_134_52" x1="36.6024" y1="67.3571" x2="36.9127" y2="75.7069" gradientUnits="userSpaceOnUse">
<stop stop-color="#367900"/>
</linearGradient>
<linearGradient id="paint2_linear_134_52" x1="35.1349" y1="87.3571" x2="35.5898" y2="95.6936" gradientUnits="userSpaceOnUse">
<stop stop-color="#367900"/>
</linearGradient>
</defs>
</svg>
