<svg viewBox="0 0 18 16" fill="none" xmlns="http://www.w3.org/2000/svg">
<g clip-path="url(#clip0_134_51)">
<path d="M15.29 0.800003H2.7C1.44 0.800003 0.520004 1.93 0.520004 3.13V13.99C0.520004 14.67 1.03 15.11 1.63 15.1C1.92 15.1 2.12 15.01 2.31 14.85L4.78 13.05C4.91 12.95 5.01 12.91 5.18 12.91H15.29C16.53 12.91 17.48 11.79 17.48 10.72V3.13C17.48 1.87 16.54 0.800003 15.29 0.800003ZM16.49 10.72C16.49 11.41 15.93 11.89 15.29 11.89H5.16C4.71 11.89 4.39 12.06 4.19 12.25L1.69 14.11C1.59 14.19 1.47 14.13 1.47 14.01V3.13C1.47 2.4 2.02 1.87 2.7 1.87H15.27C15.98 1.87 16.49 2.48 16.49 3.13V10.72Z" fill="#367900"/>
<path d="M13.37 5.02H4.58C4.27 5.02 4.12 5.27 4.12 5.52C4.12 5.81 4.34 6 4.61 6H13.38C13.69 6 13.88 5.78 13.88 5.51C13.88 5.22 13.66 5.02 13.37 5.02Z" fill="url(#paint0_linear_134_51)"/>
<path d="M10.34 7.78H4.58C4.27 7.78 4.12 8.04 4.12 8.28C4.12 8.57 4.34 8.8 4.61 8.8H10.36C10.67 8.8 10.83 8.55 10.83 8.29C10.83 8.02 10.64 7.78 10.34 7.78Z" fill="url(#paint1_linear_134_51)"/>
</g>
<defs>
<linearGradient id="paint0_linear_134_51" x1="4.771" y1="5.07" x2="4.814" y2="6.239" gradientUnits="userSpaceOnUse">
<stop offset="1" stop-color="#367900"/>
</linearGradient>
<linearGradient id="paint1_linear_134_51" x1="4.768" y1="7.828" x2="4.81" y2="8.997" gradientUnits="userSpaceOnUse">
<stop offset="1" stop-color="#367900"/>
</linearGradient>
<clipPath id="clip0_134_51">
<rect width="18" height="16" fill="white"/>
</clipPath>
</defs>
</svg>
