<svg viewBox="0 0 20 21" fill="none" xmlns="http://www.w3.org/2000/svg">
<path d="M18.843 0.512689C18.693 -0.0673106 18.053 -0.147311 17.653 0.232689C16.333 1.63269 14.033 2.01269 11.573 2.52269C9.83303 2.90269 7.98303 3.21269 6.47303 3.88269C3.00303 5.35269 0.763028 8.20269 0.763028 11.6327C0.763028 13.1527 1.23303 14.6527 2.09303 16.1327C1.23303 17.3827 0.543028 18.6627 0.0730284 19.7727C-0.106972 20.1727 0.0530284 20.6027 0.473028 20.6827C0.823028 20.7827 1.14303 20.5527 1.27303 20.2327C2.82303 16.7527 6.65303 12.1327 12.853 8.58269C13.203 8.38269 13.283 7.95269 13.103 7.65269C12.933 7.32269 12.533 7.24269 12.203 7.44269C8.47303 9.39269 5.45303 12.2927 2.95303 15.0127C2.34303 13.9027 2.11303 12.7727 2.11303 11.6127C2.11303 8.92269 3.84303 6.50269 6.67303 5.30269C8.08303 4.60269 9.88303 4.22269 11.673 3.84269C13.633 3.44269 15.633 3.01269 17.653 1.81269C18.473 5.30269 18.673 10.1127 16.243 14.2127C14.543 17.0827 11.993 18.3127 9.70303 18.3127C8.05303 18.3127 6.90303 18.0527 5.18303 17.1427C4.85303 16.9727 4.47303 17.1027 4.32303 17.4427C4.17303 17.7927 4.29303 18.2127 4.62303 18.3627C6.42303 19.3727 7.65303 19.6527 9.45303 19.6527C12.183 19.6527 15.153 18.1527 17.273 14.6327C19.883 10.2127 19.673 5.30269 18.843 0.512689Z" fill="url(#paint0_linear_132_73)"/>
<defs>
<linearGradient id="paint0_linear_132_73" x1="-0.00117221" y1="-0.0294101" x2="17.773" y2="20.9627" gradientUnits="userSpaceOnUse">
<stop offset="1" stop-color="#367900"/>
</linearGradient>
</defs>
</svg>
