<svg width="38" height="38" viewBox="0 0 38 38" fill="none" xmlns="http://www.w3.org/2000/svg">
<path d="M19 2C28.3888 2 36 9.61116 36 19C36 28.3888 28.3888 36 19 36C9.61116 36 2 28.3888 2 19C2 9.61116 9.61116 2 19 2Z" stroke="black" stroke-width="4"/>
<path d="M18.6373 13.0865H21.9948L8.62857 25.9183C8.4294 26.1082 8.27131 26.3342 8.16343 26.5832C8.05554 26.8322 8 27.0993 8 27.369C8 27.6387 8.05554 27.9058 8.16343 28.1548C8.27131 28.4038 8.4294 28.6298 8.62857 28.8197C8.82612 29.0112 9.06114 29.1632 9.3201 29.267C9.57905 29.3707 9.8568 29.4241 10.1373 29.4241C10.4178 29.4241 10.6956 29.3707 10.9545 29.267C11.2135 29.1632 11.4485 29.0112 11.6461 28.8197L25.0123 15.988V19.2163C25.0123 19.7583 25.2362 20.278 25.6347 20.6612C26.0332 21.0443 26.5737 21.2596 27.1373 21.2596C27.7009 21.2596 28.2414 21.0443 28.6399 20.6612C29.0384 20.278 29.2623 19.7583 29.2623 19.2163V11.0433C29.2623 10.5014 29.0384 9.98165 28.6399 9.59846C28.2414 9.21527 27.7009 9 27.1373 9H18.6373C18.0737 9 17.5332 9.21527 17.1347 9.59846C16.7362 9.98165 16.5123 10.5014 16.5123 11.0433C16.5123 11.5852 16.7362 12.1049 17.1347 12.4881C17.5332 12.8713 18.0737 13.0865 18.6373 13.0865Z" fill="black"/>
</svg>
