<svg viewBox="0 0 25 25" fill="none" xmlns="http://www.w3.org/2000/svg">
<path d="M12.36 0C11.08 0 10.22 0.92 9.7 2.11L8 5.9C7.82 6.28 7.61 6.43 7.19 6.5L3.08 7.08C1.2 7.35 0 8.38 0 9.93C0 10.97 0.5 11.66 1.45 12.6L4.36 15.37C4.64 15.63 4.67 15.9 4.59 16.38L3.82 20.39C3.75 20.76 3.72 21.1 3.72 21.32C3.72 22.88 4.83 24.2 6.32 24.2C7.08 24.2 7.87 23.92 8.75 23.42L11.97 21.59C12.2 21.47 12.3 21.44 12.41 21.44C12.57 21.44 12.7 21.5 12.9 21.61L16.45 23.6C17.2 23.98 17.89 24.18 18.52 24.18C20.02 24.18 20.95 22.9 20.95 21.37C20.95 21.06 20.9 20.68 20.8 20.25L20.11 16.63C20.02 16.14 20.06 15.8 20.35 15.53L23.36 12.6C24.24 11.69 24.8 10.93 24.8 9.96C24.8 8.5 23.73 7.49 21.96 7.16L17.8 6.53C17.25 6.46 17.01 6.28 16.76 5.7L15.1 2.09C14.46 0.75 13.6 0 12.36 0ZM12.36 1.21C13.04 1.21 13.52 1.76 13.96 2.75L15.61 6.35C16.05 7.23 16.64 7.75 17.6 7.89L21.76 8.46C22.91 8.68 23.43 9.16 23.43 9.93C23.43 10.53 23.05 11.07 22.38 11.74L19.5 14.49C18.85 15.12 18.68 15.88 18.85 16.71L19.54 20.34C19.63 20.78 19.64 21.08 19.64 21.27C19.64 22.31 19.15 22.86 18.38 22.86C17.95 22.86 17.41 22.68 17.08 22.48L13.51 20.46C13.08 20.23 12.75 20.12 12.36 20.12C11.92 20.12 11.61 20.2 11.16 20.46L7.91 22.31C7.27 22.68 6.78 22.85 6.3 22.85C5.45 22.85 5.1 22.22 5.1 21.35C5.1 21.15 5.13 20.91 5.19 20.63L5.9 16.93C6.07 16.17 6.03 15.22 5.22 14.46L2.31 11.67C1.55 10.96 1.26 10.5 1.26 9.9C1.26 9.04 1.95 8.64 3.27 8.43L7.38 7.85C8.34 7.7 8.94 7.18 9.3 6.33L11 2.66C11.45 1.72 11.96 1.21 12.36 1.21Z" fill="url(#paint0_linear_132_75)"/>
<defs>
<linearGradient id="paint0_linear_132_75" x1="-0.00260003" y1="0.000700336" x2="26.78" y2="2.33" gradientUnits="userSpaceOnUse">
<stop offset="1" stop-color="#367900"/>
</linearGradient>
</defs>
</svg>
