<svg xmlns="http://www.w3.org/2000/svg" width="25" height="25" fill="none" viewBox="0 0 250 250">
  <!-- SVG created with Arrow, by QuiverAI (https://quiver.ai) -->
  <path d="m169 167.4h-41.79c0-12.53 5.05-22.57 17.69-34.54 7.26 8.13 14.78 13.38 26.02 13.38 9.9 0 18.9-5.24 24.81-10.38-7.74-8.68-15.91-14.74-27.5-14.74-5.53 0-10.3 1.37-14.43 3.55l19.2-19.2c7.3 8.18 15.69 13.7 26.93 13.7 9.9 0 18.9-5.24 25.49-10.6-7.74-9.33-16.59-14.98-28.17-14.98-5.53 0-10.15 1.64-14.15 3.56l12-12.76c20.53-1.31 34.72-15.32 34.72-37.48 0 0-0.28-0.14-1.32-0.14-21.37 0-35.25 11.59-38 33.31l-11.73 11.1c2.46-5.23 2.88-10.33 2.05-16.13-1.55-10.05-7.41-18.6-14.27-25.05-7.88 7.07-12.35 19.18-10.93 30.14 1.2 8.55 5.81 15.13 12.95 21.2l-19.2 18.12c2.32-5.52 3.36-11.45 2.53-18.27-1.27-9.12-8.13-17.97-14-24.72-8.99 9.61-12.42 20.67-11 30.59 1.27 8.55 5.88 15.13 12.74 21.33-6.86 6.34-11.34 11.88-14.09 17.68-3.46-17.85-9.93-32-22.18-47.31 8.55-7.88 14.85-15.39 14.71-28.09-0.14-8.55-3.44-16.57-8.69-23.58-11.06 8.85-17.12 19.53-15.99 32.29 0.28 3.03 0.97 5.92 2 8.67l-18.66-20.26c8.16-6.58 15.39-14.23 15.81-27.52 0.28-8.55-3.56-17.54-8.31-24.68-11.9 10.18-19.03 20.86-17.35 36.68 0.28 2.32 0.83 4.38 1.51 6.02l-11.89-13.15c-0.78-18.93-12.82-35.47-37.01-36.67-0.42 0-0.28 0.68-0.42 1.85-1.92 20.12 9.84 35.3 29.35 38.47 1.27 0.28 2.54 0.42 3.5 0.42l12.04 13.71c-6.24-3.03-11.07-4.84-18.06-4.7-10.09 0.28-18.78 5.05-25.78 12 7 8.13 16.27 13.15 26.91 13.15 10.08 0 17.75-4.74 24.75-11.08l17.95 20.4c-5.74-2.75-11.13-4.32-16.52-4.18-10.22 0.42-19.5 5.55-26.89 12.5 8.16 8.27 17.57 12.87 27.53 12.73 9.76-0.27 17.57-5.17 24.26-10.97 16.24 18.93 22.58 35.61 22.58 64.63h-41.2c-3.32 0-4.74 2.32-4.74 4.64v6.23c0 2.89 1.42 4.53 4.74 4.53h89.07c2.89 0 4.16-2.46 4.16-4.11v-6.72c0-2.6-1.68-4.57-3.73-4.57z" fill="url(#paint0_linear_108_506)"/>
  <path d="m83.71 189.1 8.76 46.13c0.78 4.05 3.94 6.23 7.78 6.23h47.53c4.33 0 7.36-2.74 8.14-6.5l8.69-45.86h-80.9z" fill="url(#paint1_linear_108_506)"/>
  <path d="m124.4 38.93 2.75 1.03v0.42l-3.03 1.31c-3.84 1.64-5.01 4.39-4.39 7.14 0.77 3.3 4.33 4.33 7.08 3.48 2.19-0.73 3.8-2.07 5.43-3.76l-0.14 4.76c0 4.12 2.33 6.62 5.36 6.62 3.84 0 5.55-3.2 5.41-6.13l-0.56-5.61c1.92 1.57 4.31 3.46 6.77 4.12 3.43 1.03 6.04-1.15 6.59-3.76 0.69-3.17-0.96-5.14-3.85-6.51l-4.12-1.97v-0.42l3.42-1.85c3.32-1.82 4.59-4.57 3.9-7.18-0.96-3.3-3.9-4.09-6.65-3.37-2.46 0.69-4.65 2.66-6.06 3.79l0.42-4.13c0.28-3.86-1.77-6.75-5.2-7.88-3.42-0.42-5.74 2.47-5.74 6.33l0.28 5.54c-2.12-1.51-4.87-3.48-7.62-3.89-3.32-0.52-5 2.37-5.28 3.89-0.42 3.03 1 6.48 5.23 8.03zm12.71-4.4c3.99 0 5.02 3.27 5.02 5.19 0 3.69-2.61 5.51-5.29 5.51-3.43 0-5.11-2.75-5.11-5.3 0-2.82 2.39-5.4 5.38-5.4z" fill="url(#paint2_linear_108_506)"/>
  <path d="m30.91 120.4c-2.68 1.27-4.87 5.53-3.08 8.28 1.68 2.82 4.57 3.51 7.32 4.36v0.59c-3.7 1.13-8.7 4.4-8.42 7.67 0.42 5.51 5.42 5.16 7.18 4.74 3.03-0.75 4.71-2.39 6.5-4.71l-0.28 5.3c-0.07 3.79 1.72 6.4 5.56 6.4 3.83 0 5.03-3.17 4.89-6.4l-0.42-5.51c2.46 2.19 4.65 4.01 7.81 4.6 3.32 0.59 5.24-1.59 5.66-3.63 1.03-5.07-3.71-7.18-7.71-8.73v-0.75c3.84-1.03 7.68-3.35 7.68-7.33 0-3.27-3.19-5.23-5.49-5.02-3.7 0.35-5.96 2.81-8.15 4.85l0.28-4.5c0.14-3.86-1.78-7.13-5.34-7.13-4.12-0.35-5.54 3.98-5.12 7.84l0.28 3.61c-2.75-2.32-5.74-6.01-9.15-4.53zm14.71 6.68c3.84 0 5.32 3.17 5.32 5.56 0 3.79-3.23 5.83-5.69 5.83-3.84 0-5.6-3.17-5.6-5.62 0-3.2 2.68-5.77 5.97-5.77z" fill="url(#paint3_linear_108_506)"/>
  <path d="m76.24 126.7c-3.32 0.96-5.18 5.4-3.32 8.56 1.55 2.75 4.23 3.44 6.98 4.29v0.59c-3.77 1.27-7.77 4.23-7.77 7.5 0 3.72 3.03 4.92 5.36 4.5 3.16-0.52 4.77-1.96 7.32-4.15l0.42 5.51c0 3.86 2.19 6.18 4.94 6.18 4.29 0 5.19-3.17 4.91-7.03l-0.42-5.01c2.61 2.19 4.4 3.74 7.72 4.33 3.6 0.66 5.43-2.22 5.78-4.33 0.69-4.26-3.01-7.15-7.34-8.42v-0.76c4.12-1.2 7.82-3.59 7.54-7.78-0.35-3.23-3.03-4.98-5.42-4.56-3.32 0.62-5.58 2.59-7.78 4.56l0.28-5.02c0-3.86-2.19-6.75-5.51-6.75-3.7 0-4.8 4.33-4.8 6.75l0.35 4.5c-2.61-1.82-6.31-4.36-9.24-3.46zm14.21 6.76c4.29 0 5.18 3.34 5.18 5.24 0 3.85-3.09 5.53-5.32 5.53-3.6 0-5.08-2.82-5.08-5.28 0-3.16 2.39-5.49 5.22-5.49z" fill="url(#paint4_linear_108_506)"/>
  <defs>
    <linearGradient id="paint0_linear_108_506" x1="19" x2="109.5" y1="8.508" y2="214.7" gradientUnits="userSpaceOnUse">
      <stop stop-color="#358000" offset="0"/>
      <stop stop-color="#337A00" offset="1"/>
    </linearGradient>
    <linearGradient id="paint1_linear_108_506" x1="83.71" x2="97.42" y1="189.1" y2="253.9" gradientUnits="userSpaceOnUse">
      <stop stop-color="#358000" offset="0"/>
      <stop stop-color="#337A00" offset="1"/>
    </linearGradient>
    <linearGradient id="paint2_linear_108_506" x1="119.1" x2="146.3" y1="18.95" y2="67.93" gradientUnits="userSpaceOnUse">
      <stop stop-color="#358000" offset="0"/>
      <stop stop-color="#337A00" offset="1"/>
    </linearGradient>
    <linearGradient id="paint3_linear_108_506" x1="26.68" x2="54.79" y1="113.4" y2="158.1" gradientUnits="userSpaceOnUse">
      <stop stop-color="#358000" offset="0"/>
      <stop stop-color="#337A00" offset="1"/>
    </linearGradient>
    <linearGradient id="paint4_linear_108_506" x1="72.06" x2="100.2" y1="118.8" y2="163.5" gradientUnits="userSpaceOnUse">
      <stop stop-color="#358000" offset="0"/>
      <stop stop-color="#337A00" offset="1"/>
    </linearGradient>
  </defs>
</svg>
