<svg viewBox="0 0 50 50" fill="none" xmlns="http://www.w3.org/2000/svg">
<path d="M32.1 25.74V25.54C36.51 22.74 38.58 18.05 38.58 13.73C38.58 6.43 32.33 0 24.75 0C17.26 0 11.2 6.48 11.2 13.72C11.2 18.42 13.88 22.77 17.84 25.52V25.73C8.08 28.58 0.07 37.54 0 48.23C0 49.13 0.67 49.51 1.31 49.51C2 49.51 2.4 48.88 2.44 48.23C2.5 37.58 11.9 27.49 24.65 27.49C36.95 27.49 47.08 36.86 47.18 48.23C47.18 48.99 47.8 49.44 48.48 49.44C49.21 49.44 49.74 48.88 49.74 48.14C49.41 38 42.04 28.56 32.1 25.74ZM24.71 24.73C18.38 24.73 13.66 19.3 13.66 13.78C13.66 7.71 18.82 2.28 24.75 2.28C31.14 2.28 36.12 7.75 36.12 13.75C36.12 19.55 31.24 24.73 24.71 24.73Z" fill="#287A00"/>
</svg>
