<svg width="208" height="236" viewBox="0 0 208 236" fill="none" xmlns="http://www.w3.org/2000/svg">
<path d="M39.5 193C39.274 194.143 39.6665 194.415 41.5651 194.856C50.4102 197.102 59.8053 197.99 71.0839 197.99C90.3939 197.99 108.649 193.981 121.276 185.36C134.085 176.605 149.59 162.377 153.5 150.081C155.512 143.839 153.5 140.077 151.375 136.855C149.906 135.225 143.397 137.028 142.56 137.109C141.724 137.191 141.778 136.639 142.252 135.312C143.924 132.184 144.617 129.965 141.091 128.422C135.652 126.129 123.846 124.866 116.01 125C77.6989 125 46.2883 153.384 39.5 193Z" fill="#7E4A2D"/>
<path d="M39.5 193C52.2102 173.612 82.8604 142.64 118.295 135.604C123.476 134.566 134.124 134.765 142 136.997C134.352 137.793 130.464 138.852 128.014 139.847C107.038 145.44 74.9939 163.058 39.5 193Z" fill="#602D16"/>
<path d="M192.648 50.2221C185.287 54.0503 176.901 54.5022 162.19 52.6804C145.381 50.8085 123.004 54.7134 113.85 82.1907C129.51 72.1239 143.093 69.3967 164.849 67.4152C150.016 74.5657 128.663 77.9819 110.904 91.1264C96.3273 101.978 92.1462 122.429 91.7414 132.558C91.0465 149.945 89.0465 157.445 89.0465 157.445L98 152.5C99.4702 146.605 98.0763 129.445 100.169 121.807C103.414 110.258 111.244 101.607 121.572 94.3334C146.194 102.472 178.604 94.9369 192.648 50.2221Z" fill="#367900"/>
<path d="M87.9111 94.443C91.5519 99.5806 92.3514 106.39 92.1189 109.881C93.3039 106.066 95.2791 101.783 97.0094 98.9302C91.8933 82.1576 79.049 70.3387 67.885 55.8115C78.0413 63.0564 88.4759 69.219 99.0298 88.3055C103.221 68.3988 94.1272 53.1944 73.9037 44.5802C64.9318 40.7964 57.6208 38.157 53.6958 31.5477C47.9937 50.5425 50.1931 83.0455 78.7049 91.566C81.4652 92.7891 84.6235 93.4609 87.9111 94.443Z" fill="#367900"/>
</svg>
