<svg width="644" height="191" viewBox="0 0 644 191" fill="none" xmlns="http://www.w3.org/2000/svg">
<path d="M516.029 163.471C515.913 164.05 516.115 164.188 517.09 164.411C521.632 165.549 526.457 166 532.249 166C542.166 166 551.541 163.968 558.025 159.598C564.603 155.161 572.565 147.95 574.574 141.717C575.607 138.553 574.574 136.646 573.482 135.014C572.728 134.187 569.385 135.101 568.956 135.143C568.526 135.184 568.554 134.904 568.797 134.231C569.656 132.646 570.012 131.522 568.201 130.739C565.408 129.577 559.345 128.937 555.321 129.005C535.646 129.005 519.516 143.391 516.029 163.471Z" fill="#7E4A2D"/>
<path d="M516 164C522.448 153.972 537.997 137.952 555.974 134.312C558.602 133.776 564.004 133.878 568 135.033C564.12 135.444 562.148 135.992 560.905 136.507C550.263 139.4 534.007 148.513 516 164Z" fill="#602D16"/>
<path d="M643.206 25.8365C635.844 30.0957 627.458 30.5986 612.748 28.5717C595.939 26.489 573.561 30.8335 564.408 61.4044C580.068 50.2042 593.65 47.1699 615.407 44.9654C600.573 52.9209 579.221 56.7217 561.462 71.3461C546.885 83.4192 542.704 106.173 542.299 117.443C541.604 136.787 539.604 145.131 539.604 145.131L548.557 139.629C550.028 133.071 548.634 113.979 550.727 105.481C553.972 92.6312 561.802 83.0063 572.129 74.9142C596.751 83.9686 629.162 75.5856 643.206 25.8365Z" fill="url(#paint0_linear_114_70)"/>
<path d="M538.469 75.0361C542.109 80.7521 542.909 88.3287 542.676 92.2121C543.861 87.9675 545.836 83.2025 547.567 80.0284C542.451 61.3675 529.606 48.2179 518.442 32.0552C528.599 40.1158 539.033 46.9722 549.587 68.2076C553.778 46.0597 544.685 29.1435 524.461 19.5594C515.489 15.3497 508.178 12.4131 504.253 5.0597C498.551 26.193 500.751 62.3554 529.262 71.8351C532.023 73.196 535.181 73.9435 538.469 75.0361Z" fill="url(#paint1_linear_114_70)"/>
<path d="M18.048 147.024C15.4027 147.024 13.3547 146.299 11.904 144.848C10.5387 143.312 9.856 141.221 9.856 138.576V64.08C9.856 61.3493 10.5813 59.3013 12.032 57.936C13.4827 56.4853 15.5307 55.76 18.176 55.76H49.024C58.9227 55.76 66.56 58.2347 71.936 63.184C77.312 68.1333 80 75.0453 80 83.92C80 92.7947 77.312 99.7493 71.936 104.784C66.56 109.733 58.9227 112.208 49.024 112.208H26.24V138.576C26.24 141.221 25.5573 143.312 24.192 144.848C22.8267 146.299 20.7787 147.024 18.048 147.024ZM26.24 99.28H46.464C52.2667 99.28 56.6613 98 59.648 95.44C62.6347 92.7947 64.128 88.9547 64.128 83.92C64.128 78.8853 62.6347 75.088 59.648 72.528C56.6613 69.968 52.2667 68.688 46.464 68.688H26.24V99.28ZM120.876 146C118.231 146 116.183 145.275 114.732 143.824C113.281 142.288 112.556 140.197 112.556 137.552V63.696C112.556 60.9653 113.239 58.9173 114.604 57.552C116.055 56.1013 118.103 55.376 120.748 55.376C123.393 55.376 125.399 56.1013 126.764 57.552C128.215 58.9173 128.94 60.9653 128.94 63.696V132.048H166.06C168.364 132.048 170.113 132.645 171.308 133.84C172.588 135.035 173.228 136.741 173.228 138.96C173.228 141.179 172.588 142.928 171.308 144.208C170.113 145.403 168.364 146 166.06 146H120.876ZM202.527 147.024C200.479 147.024 198.815 146.555 197.535 145.616C196.34 144.677 195.615 143.44 195.359 141.904C195.103 140.283 195.402 138.491 196.255 136.528L230.047 61.648C231.156 59.1733 232.479 57.424 234.015 56.4C235.636 55.2907 237.471 54.736 239.519 54.736C241.482 54.736 243.231 55.2907 244.767 56.4C246.388 57.424 247.754 59.1733 248.863 61.648L282.783 136.528C283.722 138.491 284.063 140.283 283.807 141.904C283.551 143.525 282.826 144.805 281.631 145.744C280.436 146.597 278.858 147.024 276.895 147.024C274.506 147.024 272.628 146.469 271.263 145.36C269.983 144.165 268.831 142.373 267.807 139.984L259.487 120.656L266.399 125.136H212.383L219.295 120.656L211.103 139.984C209.994 142.459 208.842 144.251 207.647 145.36C206.452 146.469 204.746 147.024 202.527 147.024ZM239.263 73.552L221.343 116.176L218.015 112.08H260.767L257.567 116.176L239.519 73.552H239.263ZM323.761 147.024C321.286 147.024 319.366 146.341 318.001 144.976C316.721 143.611 316.081 141.648 316.081 139.088V62.928C316.081 60.2827 316.721 58.2773 318.001 56.912C319.366 55.4613 321.116 54.736 323.249 54.736C325.212 54.736 326.662 55.12 327.601 55.888C328.625 56.5707 329.82 57.7653 331.185 59.472L380.209 123.088H376.881V62.544C376.881 60.0693 377.521 58.1493 378.801 56.784C380.166 55.4187 382.086 54.736 384.561 54.736C387.036 54.736 388.913 55.4187 390.193 56.784C391.473 58.1493 392.113 60.0693 392.113 62.544V139.344C392.113 141.733 391.516 143.611 390.321 144.976C389.126 146.341 387.505 147.024 385.457 147.024C383.494 147.024 381.916 146.64 380.721 145.872C379.612 145.104 378.374 143.867 377.009 142.16L328.113 78.544H331.313V139.088C331.313 141.648 330.673 143.611 329.393 144.976C328.113 146.341 326.236 147.024 323.761 147.024ZM460.983 147.024C458.338 147.024 456.29 146.299 454.839 144.848C453.474 143.312 452.791 141.221 452.791 138.576V69.456H427.831C425.612 69.456 423.863 68.8587 422.583 67.664C421.388 66.384 420.791 64.6773 420.791 62.544C420.791 60.3253 421.388 58.6613 422.583 57.552C423.863 56.3573 425.612 55.76 427.831 55.76H494.135C496.354 55.76 498.06 56.3573 499.255 57.552C500.535 58.6613 501.175 60.3253 501.175 62.544C501.175 64.6773 500.535 66.384 499.255 67.664C498.06 68.8587 496.354 69.456 494.135 69.456H469.175V138.576C469.175 141.221 468.492 143.312 467.127 144.848C465.762 146.299 463.714 147.024 460.983 147.024Z" fill="#72B311"/>
<defs>
<linearGradient id="paint0_linear_114_70" x1="638.5" y1="19.5" x2="524.322" y2="135.974" gradientUnits="userSpaceOnUse">
<stop stop-color="#98FF00"/>
<stop offset="0.567308" stop-color="#74B80F"/>
<stop offset="1" stop-color="#457300"/>
</linearGradient>
<linearGradient id="paint1_linear_114_70" x1="503" y1="5" x2="546.411" y2="86.5476" gradientUnits="userSpaceOnUse">
<stop stop-color="#98FF00"/>
<stop offset="1" stop-color="#66A40A"/>
</linearGradient>
</defs>
</svg>
