<svg viewBox="0 0 22 22" fill="none" xmlns="http://www.w3.org/2000/svg">
<g clip-path="url(#clip0_134_50)">
<path d="M11 0.5C5.22 0.5 0.529999 5.28 0.529999 11C0.529999 16.8 5.26 21.41 10.95 21.41H10.97C16.74 21.41 21.47 16.71 21.47 11C21.47 5.26 16.74 0.5 11 0.5ZM10.95 20.44H10.93C5.77 20.44 1.45 16.22 1.45 11C1.45 5.84 5.72 1.39 10.99 1.39C16.29 1.39 20.55 5.69 20.55 11C20.55 16.23 16.15 20.44 10.95 20.44Z" fill="url(#paint0_linear_134_50)"/>
<path d="M11.01 3.85001H10.97C8.22 3.85001 6.5 5.79001 6.5 8.50001V8.67001H9.77L9.79 8.31001C9.83 7.36001 10.34 6.89001 10.99 6.89001H11C11.76 6.89001 12.06 7.45001 12.06 7.91001C12.06 8.46001 11.77 8.76001 11.25 9.23001L10.92 9.53001C9.84 10.5 9.38 11.27 9.38 12.54V13.84H12.52V12.97C12.52 12.16 12.76 11.83 13.35 11.33L13.86 10.88C14.78 10.06 15.49 9.17001 15.49 7.88001C15.49 5.72001 13.87 3.85001 11.01 3.85001ZM13.22 10.2L12.71 10.66C12.05 11.24 11.56 11.76 11.54 12.83H10.39V12.46C10.39 11.41 10.79 10.86 11.63 10.09L11.92 9.82001C12.49 9.32001 13.05 8.77001 13.05 7.89001C13.05 6.83001 12.27 5.92001 10.98 5.92001H10.96C9.81 5.92001 9.07 6.71001 8.91 7.71001H7.53C7.73 6.03001 8.91 4.77001 11.01 4.77001H11.03C13.44 4.77001 14.51 6.32001 14.51 7.83001C14.51 8.79001 14.03 9.51001 13.22 10.2Z" fill="url(#paint1_linear_134_50)"/>
<path d="M10.97 14.43C9.93 14.43 9.16 15.34 9.16 16.32C9.16 17.36 10.01 18.09 10.96 18.09C11.96 18.09 12.81 17.25 12.81 16.3C12.81 15.26 12.01 14.43 10.97 14.43ZM10.97 17.16C10.44 17.16 10.12 16.69 10.12 16.31C10.12 15.78 10.52 15.42 10.97 15.42C11.51 15.42 11.83 15.9 11.83 16.31C11.83 16.79 11.39 17.16 10.97 17.16Z" fill="url(#paint2_linear_134_50)"/>
</g>
<defs>
<linearGradient id="paint0_linear_134_50" x1="11" y1="0.5" x2="11" y2="21.41" gradientUnits="userSpaceOnUse">
<stop offset="1" stop-color="#367900"/>
</linearGradient>
<linearGradient id="paint1_linear_134_50" x1="11" y1="3.84801" x2="11" y2="13.84" gradientUnits="userSpaceOnUse">
<stop offset="1" stop-color="#367900"/>
</linearGradient>
<linearGradient id="paint2_linear_134_50" x1="10.98" y1="14.43" x2="10.98" y2="18.09" gradientUnits="userSpaceOnUse">
<stop offset="1" stop-color="#367900"/>
</linearGradient>
<clipPath id="clip0_134_50">
<rect width="22" height="22" fill="white"/>
</clipPath>
</defs>
</svg>
