<svg width="34" height="30" viewBox="0 0 34 30" fill="none" xmlns="http://www.w3.org/2000/svg">
<path d="M2.94399 28.416C1.91999 29.184 1.10933 29.3547 0.511992 28.928C0.170659 28.672 -8.10623e-06 28.3307 -8.10623e-06 27.904C-8.10623e-06 27.392 0.298659 26.9227 0.895992 26.496C3.79733 24.0213 5.63199 22.0587 6.39999 20.608C7.25333 19.072 7.67999 17.7493 7.67999 16.64C7.67999 15.104 7.33866 13.952 6.65599 13.184C5.97333 12.3307 5.20533 11.648 4.35199 11.136C3.49866 10.5387 2.73066 9.856 2.04799 9.088C1.36533 8.32 1.02399 7.168 1.02399 5.632C1.02399 4.096 1.57866 2.77333 2.68799 1.664C3.79733 0.554667 5.29066 0 7.16799 0C9.30133 0 10.9653 0.768 12.16 2.304C13.44 3.84 14.08 5.93067 14.08 8.576C14.08 12.5013 13.2267 16.0853 11.52 19.328C9.81333 22.5707 6.95466 25.6 2.94399 28.416ZM22.144 28.416C21.12 29.184 20.3093 29.3547 19.712 28.928C19.3707 28.672 19.2 28.3307 19.2 27.904C19.2 27.392 19.4987 26.9227 20.096 26.496C22.9973 24.0213 24.832 22.0587 25.6 20.608C26.4533 19.072 26.88 17.7493 26.88 16.64C26.88 15.104 26.5387 13.952 25.856 13.184C25.1733 12.3307 24.4053 11.648 23.552 11.136C22.6987 10.5387 21.9307 9.856 21.248 9.088C20.5653 8.32 20.224 7.168 20.224 5.632C20.224 4.096 20.7787 2.77333 21.888 1.664C22.9973 0.554667 24.4907 0 26.368 0C28.5013 0 30.1653 0.768 31.36 2.304C32.64 3.84 33.28 5.93067 33.28 8.576C33.28 12.5013 32.4267 16.0853 30.72 19.328C29.0133 22.5707 26.1547 25.6 22.144 28.416Z" fill="#E2D4B2"/>
</svg>
